# xmcd
#
# Track frame offsets:
# 150
# 16147
# 30009
# 42413
# 55898
# 65769
# 78137
# 89538
# 101751
# 114895
# 121662
#
# Disc length: 1827 seconds
#
# Revision: 1
# Processed by: cddbd v1.5.2PL0 Copyright (c) Steve Scherf et al.
# Submitted via: CedeCatalogueitor 2.6.0.6 http://personales.ya.com/cdcatalogueitor
#
DISCID=7b07210b
DTITLE=Maria Rodés - Una Forma De Hablar
DYEAR=1900
DGENRE=
TTITLE0=Desorden
TTITLE1=A Lo Mejor
TTITLE2=Una Forma De Hablar
TTITLE3=De Cera A Cien
TTITLE4=Invisible
TTITLE5=El Lobo 
TTITLE6=Rima Con Canción
TTITLE7=La Nana Del Agua
TTITLE8=Lo Que Hay Que Oir
TTITLE9=Desastra
TTITLE10=Escondite
EXTD=
EXTT0=
EXTT1=
EXTT2=
EXTT3=
EXTT4=
EXTT5=
EXTT6=
EXTT7=
EXTT8=
EXTT9=
EXTT10=
PLAYORDER=
